<?xml version="1.0" encoding="UTF-8" standalone="no"?>
<svg
   xmlns:dc="http://purl.org/dc/elements/1.1/"
   xmlns:cc="http://creativecommons.org/ns#"
   xmlns:rdf="http://www.w3.org/1999/02/22-rdf-syntax-ns#"
   xmlns:svg="http://www.w3.org/2000/svg"
   xmlns="http://www.w3.org/2000/svg"
   viewBox="0 0 651.29987 219.89987"
   height="219.89987"
   width="651.29987"
   xml:space="preserve"
   version="1.1"
   id="svg3336"><metadata
     id="metadata3342"><rdf:RDF><cc:Work
         rdf:about=""><dc:format>image/svg+xml</dc:format><dc:type
           rdf:resource="http://purl.org/dc/dcmitype/StillImage" /><dc:title></dc:title></cc:Work></rdf:RDF></metadata><defs
     id="defs3340"><clipPath
       id="clipPath3350"
       clipPathUnits="userSpaceOnUse"><path
         id="path3352"
         d="M 0,175.785 0,0 l 520.95,0 0,175.785" /></clipPath></defs><g
     transform="matrix(1.25,0,0,-1.25,0,219.89987)"
     id="g3344"><g
       id="g3346"><g
         clip-path="url(#clipPath3350)"
         id="g3348"><path
           id="path3354"
           style="fill:#db1f26;fill-opacity:1;fill-rule:nonzero;stroke:none"
           d="m 471.711,99.237 -0.475,-5.671 c -3.308,-40.638 -16.537,-53.162 -32.84,-53.162 -14.652,0 -25.05,9.923 -22.922,36.385 l 0.473,5.91 c 3.31,40.404 16.538,53.163 32.841,53.163 14.416,0 25.049,-10.163 22.923,-36.625 m -366.236,0 L 105,93.566 C 101.696,52.928 88.462,40.404 72.159,40.404 c -14.651,0 -25.044,9.923 -22.918,36.385 l 0.469,5.91 c 3.311,40.404 16.543,53.163 32.847,53.163 14.411,0 25.044,-10.163 22.918,-36.625 m 348.04,76.555 c -25.957,0 -47.071,-8.002 -61.989,-24.567 2.125,5.751 3.245,12.763 3.391,21.023 l -90.967,0 c -19.847,0 -31.189,-8.741 -38.986,-31.189 l 4.018,31.189 -91.915,0 c -16.827,0 -28.38,-8.046 -32.554,-23.803 -11.39,18.254 -31.629,27.347 -57.233,27.347 -48.671,0 -80.334,-28.119 -86.005,-88.131 L 0.566,80.099 C -4.396,26.461 23.723,0 67.432,0 c 48.675,0 80.339,28.353 86.009,88.37 l 0.709,7.558 c 1.279,13.763 0.345,25.723 -2.472,35.916 l 41.219,0 -11.811,-101.13 c -2.366,-20.082 8.506,-29.297 26.696,-29.297 11.107,0 14.886,0.709 19.139,1.417 l 14.651,129.01 47.966,0 -11.815,-101.13 c -2.362,-20.082 8.506,-29.297 26.701,-29.297 11.102,0 14.886,0.709 19.139,1.417 l 14.646,129.01 23.631,0 c 8.175,0 14.777,1.9 19.873,5.656 -7.44,-13.109 -12.296,-29.664 -14.203,-49.839 l -0.708,-7.562 C 361.84,26.461 389.955,0 433.667,0 c 48.677,0 80.334,28.353 86.006,88.37 l 0.709,7.558 c 4.963,53.402 -23.153,79.864 -66.867,79.864" /></g></g></g></svg>